<?xml version="1.0" encoding="iso-8859-1"?>
<!-- Generator: Adobe Illustrator 16.0.0, SVG Export Plug-In . SVG Version: 6.00 Build 0)  -->
<!DOCTYPE svg PUBLIC "-//W3C//DTD SVG 1.1//EN" "http://www.w3.org/Graphics/SVG/1.1/DTD/svg11.dtd">
<svg version="1.1" id="Capa_1" xmlns="http://www.w3.org/2000/svg" xmlns:xlink="http://www.w3.org/1999/xlink" x="0px" y="0px"
	 width="187.053px" height="187.052px" viewBox="0 0 187.053 187.052" style="enable-background:new 0 0 187.053 187.052;"
	 xml:space="preserve">
<g>
	<path d="M133.808,121.953c16.605-26.109,4.152-50.752-0.164-57.612c21.324-5.188,39.628-14.321,52.117-26.512
		c1.687-1.659,1.729-4.363,0.091-6.068c-1.687-1.674-4.372-1.674-6.064-0.085c-18.311,17.884-52.068,28.969-88.099,28.969
		c-33.938,0-65.583-9.645-84.626-25.845c-1.821-1.547-4.512-1.297-6.041,0.481c-1.522,1.814-1.315,4.512,0.481,6.034
		c12.9,10.949,30.963,19.129,51.496,23.714c-4.658,7.657-16.148,31.898,0.667,57.576c-21.455,5.182-39.851,14.352-52.37,26.598
		c-1.69,1.644-1.732,4.359-0.094,6.053c0.868,0.87,1.964,1.303,3.069,1.303c1.096,0,2.165-0.414,2.987-1.206
		c18.301-17.884,52.071-28.978,88.098-28.978c33.941,0,65.574,9.656,84.627,25.854c1.821,1.529,4.537,1.297,6.041-0.48
		c1.521-1.814,1.314-4.524-0.481-6.034C172.602,134.704,154.443,126.52,133.808,121.953z M62.543,120.857
		c-20.219-26.841-1.812-52.269-1.001-53.353c0.186-0.25,0.085-0.576,0.21-0.868c9.654,1.641,19.68,2.569,29.937,2.569
		c11.588,0,22.805-1.172,33.436-3.175c0.146,0.499,0.073,1.041,0.396,1.485c0.188,0.25,18.925,25.964-0.664,52.769
		c-9.499-1.589-19.382-2.479-29.489-2.479C83.983,117.812,72.989,118.939,62.543,120.857z M109.323,93.438
		c0,9.364-7.594,16.958-16.955,16.958c-9.329,0-16.916-7.594-16.916-16.958c0-9.35,7.587-16.938,16.916-16.938
		c4.229,0,8.071,1.522,11.018,4.046C107.021,83.677,109.323,88.292,109.323,93.438z"/>
</g>
<g>
</g>
<g>
</g>
<g>
</g>
<g>
</g>
<g>
</g>
<g>
</g>
<g>
</g>
<g>
</g>
<g>
</g>
<g>
</g>
<g>
</g>
<g>
</g>
<g>
</g>
<g>
</g>
<g>
</g>
</svg>
