<?xml version="1.0" encoding="iso-8859-1"?>
<!-- Generator: Adobe Illustrator 16.0.0, SVG Export Plug-In . SVG Version: 6.00 Build 0)  -->
<!DOCTYPE svg PUBLIC "-//W3C//DTD SVG 1.1//EN" "http://www.w3.org/Graphics/SVG/1.1/DTD/svg11.dtd">
<svg version="1.1" id="Capa_1" xmlns="http://www.w3.org/2000/svg" xmlns:xlink="http://www.w3.org/1999/xlink" x="0px" y="0px"
	 width="187.056px" height="187.056px" viewBox="0 0 187.056 187.056" style="enable-background:new 0 0 187.056 187.056;"
	 xml:space="preserve">
<g>
	<path d="M151.356,19.944c-42.66-26.576-87.206,0.173-95.618,5.742c-4.738-4.08-8.467-5.344-11.329-3.812
		c-5.212,2.801-4.003,13.658-3.504,16.967c-2.624,3.029-3.379,6.979-3.111,9.983c0.566,6.46-0.524,11.036-3.176,13.238
		c-3.142,2.618-7.785,1.37-7.824,1.358l-0.512-0.079c-6.497-0.237-11.947,1.93-16.167,6.439
		C-2.735,83.5,0.263,114.402,0.395,115.705c1.272,12.885,5.556,21.416,12.684,25.453c0.871,2.801,4.664,13.286,13.755,17.427
		c2.417,1.103,4.993,1.663,7.724,1.663c3.848,0,8.02-1.103,12.546-3.331c1.583-0.78,2.965-1.438,4.738-1.718l1.099,16.575
		l0.579,0.572c4.868,4.731,10.007,6.339,14.733,6.339c9.864,0,17.933-6.979,18.051-7.088l0.779-0.682l-0.703-10.717
		c5.916-1.62,10.686-3.897,14.578-6.51l1.229,18.499l0.913,0.572c4.938,3.069,9.634,4.214,13.89,4.214
		c12.307,0,20.916-9.566,21.038-9.7l0.615-0.706l-0.109-0.926c-0.89-7.91-0.481-16.429,0.128-22.865
		c0.024-0.006,0.036-0.006,0.055-0.012l0.858,13.871l0.998,0.561c4.586,2.6,8.902,3.537,12.745,3.537
		c10.084,0,16.934-6.479,17.02-6.576l0.639-0.621l0.007-0.889c0.079-9.566,7.52-34.075,7.557-34.209
		C202.798,51.96,169.344,31.135,151.356,19.944z M46.404,25.585c0.332-0.18,2.259-0.798,7.739,4.302
		c0.798,0.743,1.745,1.672,1.608,5.094c-4.32-0.816-7.974-0.509-10.937,0.898C44.428,31.178,44.863,26.414,46.404,25.585z
		 M174.55,117.063c-0.311,0.998-7.252,23.882-7.751,34.556c-2.399,1.948-11.594,8.3-23.139,2.405l-0.768-12.386
		c9.134-2.812,16.319-7.952,21.337-15.399c12.439-18.438,7.429-44.049,7.215-45.142c-0.231-1.139-1.327-1.875-2.484-1.644
		c-1.15,0.231-1.888,1.339-1.656,2.481c0.049,0.25,4.859,25.003-6.588,41.961c-4.896,7.252-12.16,12.081-21.562,14.413
		c0.438-3.525,0.834-5.797,0.846-5.852c0.201-1.151-0.554-2.247-1.698-2.461c-1.163-0.207-2.247,0.555-2.46,1.699
		c-0.062,0.316-0.664,3.745-1.206,8.805c-0.03,0.128-0.03,0.269-0.036,0.402c-0.67,6.503-1.212,15.545-0.354,24.186
		c-2.734,2.74-13.986,12.58-27.985,4.586l-1.267-19.114c9.151-8.013,11.728-17.908,12.428-23.035l-2.046-0.615l2.076,0.359
		c0.195-1.151-0.572-2.234-1.711-2.448c-1.157-0.188-2.234,0.555-2.448,1.693l-0.061,0.42c-0.956,6.954-5.742,23.754-29.578,29.562
		l-1.72,0.414l0.792,12.1c-3.154,2.447-15.089,10.395-25.69,0.791l-0.965-14.607c2.262,0.316,5.106,1.054,9.045,2.473
		c7.152,2.575,17.248-0.158,27.718-7.515c0.953-0.663,1.184-1.979,0.518-2.946c-0.67-0.95-1.985-1.182-2.944-0.518
		c-9.191,6.447-18.112,9.066-23.863,6.996c-12.413-4.464-16.191-3.137-21.668-0.433c-6.196,3.051-11.676,3.538-16.286,1.449
		c-5.331-2.43-8.549-7.818-10.205-11.532c1.559,0.34,3.154,0.486,4.75,0.486c6.016,0,12.029-2.174,16.279-4.713
		c10.434-6.235,15.515-4.141,20.429-2.119l0.883,0.365c18.831,7.618,33.335,7.466,43.111-0.426
		c19.333-15.606,12.653-55.476,12.361-57.165c-0.201-1.154-1.285-1.921-2.448-1.72c-1.15,0.198-1.924,1.291-1.724,2.442
		c0.073,0.387,6.553,39.113-10.851,53.155c-8.5,6.868-21.574,6.789-38.87-0.201l-0.861-0.359c-5.325-2.192-11.953-4.92-24.198,2.405
		c-5.587,3.337-14.56,5.979-21.507,2.484c-6.235-3.142-9.989-10.741-11.161-22.578c-0.031-0.299-2.935-30.303,8.598-42.618
		c3.355-3.571,7.459-5.295,12.708-5.106c1.349,0.323,7.015,1.382,11.375-2.213c3.839-3.169,5.432-8.851,4.719-16.885
		c-0.204-2.338,0.493-5.8,3.136-7.864c3.02-2.357,8.025-2.424,14.486-0.186c1.096,0.38,2.302-0.207,2.685-1.303
		c0.387-1.105-0.198-2.308-1.303-2.688c-0.372-0.131-0.722-0.219-1.084-0.338c0.268-3.446-0.225-5.623-1.239-7.261
		c9.091-5.913,50.695-30.032,90.451-5.282C172.614,38.144,195.881,58.613,174.55,117.063z M126.653,32.813
		c1.242,2.43,1.028,5.678-0.566,8.692c-2.473,4.643-7.496,7.749-13.811,8.528c-0.085,0.012-0.171,0.012-0.262,0.012
		c-1.048,0-1.955-0.779-2.089-1.851c-0.14-1.16,0.67-2.213,1.833-2.35c6.99-0.868,9.743-4.707,10.595-6.324
		c0.932-1.769,1.151-3.602,0.536-4.795c-1.284-2.512-2.819-3.833-4.707-4.046c-4.676-0.5-10.997,5.638-13.006,8.062
		c-0.755,0.904-2.083,1.017-2.978,0.274c-0.901-0.746-1.023-2.077-0.274-2.972c0.896-1.068,8.981-10.409,16.715-9.56
		C122.001,26.864,124.698,28.983,126.653,32.813z M84.239,46.648c-1.078,0.444-1.595,1.677-1.157,2.749
		c0.441,1.081,1.668,1.599,2.749,1.16c0.024-0.006,0.768-0.292,1.946-0.53c0.192,2.083,0.928,5.337,3.66,6.915
		c0.94,0.545,2,0.819,3.166,0.819c2.159,0,4.707-0.94,7.603-2.795c0.012,0.019,0.03,0.034,0.049,0.052
		c0.414,0.49,1.011,0.746,1.619,0.746c0.476,0,0.963-0.161,1.358-0.502c0.895-0.755,1.005-2.083,0.249-2.974
		C98.351,43.886,88.468,44.927,84.239,46.648z M93.562,53.282c-0.978-0.56-1.41-2.201-1.559-3.547
		c2.101,0.131,4.515,0.737,6.877,2.28C96.499,53.37,94.572,53.87,93.562,53.282z M60.777,52.216
		c0.606,0.292,1.209,0.624,1.833,1.029c0.965,0.636,2.283,0.38,2.923-0.6c0.642-0.971,0.374-2.28-0.597-2.923
		c-8.668-5.73-17.266-2.128-20.597,0.579c-0.904,0.737-1.042,2.058-0.311,2.962c0.417,0.518,1.029,0.786,1.647,0.786
		c0.466,0,0.929-0.149,1.321-0.46c0.042-0.04,0.244-0.188,0.542-0.387c1.178,1.745,3.474,4.409,6.558,4.409c0.058,0,0.106,0,0.158,0
		C56.755,57.535,58.926,55.651,60.777,52.216z M54.137,53.382c-0.813-0.037-1.827-0.947-2.652-1.982
		c1.486-0.426,3.249-0.673,5.222-0.426C55.41,53.115,54.441,53.376,54.137,53.382z M69.238,74.29
		c-5.188-0.91-9.989,3.035-10.973,8.655c-0.999,5.654,2.305,10.979,7.362,11.871c0.493,0.088,0.98,0.131,1.464,0.131
		c4.616,0,8.619-3.69,9.518-8.78C77.593,80.512,74.301,75.188,69.238,74.29z M72.45,85.439c-0.582,3.297-3.312,5.681-6.086,5.224
		c-2.762-0.493-4.533-3.623-3.94-6.984c0.53-3.018,2.834-5.286,5.362-5.286c0.243,0,0.487,0.018,0.722,0.061
		C71.272,78.942,73.035,82.071,72.45,85.439z M26.252,73.421c-5.182-0.91-9.989,3.033-10.973,8.65
		c-0.999,5.654,2.305,10.985,7.362,11.877c0.493,0.083,0.98,0.125,1.461,0.125c4.612,0,8.616-3.689,9.514-8.777
		C34.618,79.645,31.309,74.314,26.252,73.421z M29.47,84.565c-0.587,3.297-3.312,5.693-6.086,5.218
		c-2.761-0.484-4.533-3.623-3.939-6.981c0.53-3.015,2.837-5.282,5.361-5.282c0.244,0,0.487,0.018,0.73,0.061
		C28.292,78.074,30.055,81.204,29.47,84.565z"/>
</g>
<g>
</g>
<g>
</g>
<g>
</g>
<g>
</g>
<g>
</g>
<g>
</g>
<g>
</g>
<g>
</g>
<g>
</g>
<g>
</g>
<g>
</g>
<g>
</g>
<g>
</g>
<g>
</g>
<g>
</g>
</svg>
