<?xml version="1.0" encoding="iso-8859-1"?>
<!-- Generator: Adobe Illustrator 16.0.0, SVG Export Plug-In . SVG Version: 6.00 Build 0)  -->
<!DOCTYPE svg PUBLIC "-//W3C//DTD SVG 1.1//EN" "http://www.w3.org/Graphics/SVG/1.1/DTD/svg11.dtd">
<svg version="1.1" id="Capa_1" xmlns="http://www.w3.org/2000/svg" xmlns:xlink="http://www.w3.org/1999/xlink" x="0px" y="0px"
	 width="187.059px" height="187.059px" viewBox="0 0 187.059 187.059" style="enable-background:new 0 0 187.059 187.059;"
	 xml:space="preserve">
<g>
	<g>
		<path d="M93.529,0.28C41.963,0.28,0,42.237,0,93.81c0,47.86,35.841,87.812,83.367,92.957c0.079,0,0.167,0.012,0.25,0.012
			c1.047,0,1.976-0.706,2.256-1.735c2.67-9.889,2.737-16.891,2.737-17.184c0-0.597-0.219-1.175-0.63-1.602
			c-3.042-3.294-10.181-16.525-12.668-21.336c-0.17-0.341-0.423-0.633-0.743-0.853c-7.258-5.072-8.662-12.361-8.674-12.435
			c-0.143-0.791-0.691-1.455-1.446-1.747c-0.743-0.286-1.596-0.207-2.256,0.292c-8.841,6.644-14.498,6.644-18.24,6.644h-0.704
			c-4.515,0-17.866-1.632-17.896-1.632c-1.708-0.299-3.934-0.962-4.789-2.496c-0.892-1.565-0.119-3.551-0.119-3.551
			c0.094-0.201,0.152-0.432,0.17-0.664c0.971-9.364,8.266-19.217,8.385-19.351l11.186-15.686c2.683-4.714,6.878-5.225,8.556-5.225
			l0.605,0.024c2.421,0.183,9.515-0.316,9.584-0.316c0.466,0,0.603,0.152,0.661,0.194c0.329,0.329,0.454,1.169,0.441,1.504
			c-0.036,0.92,0.493,1.784,1.31,2.187c0.432,0.213,0.374,1.954-0.107,3.336c-0.137,0.391-0.161,1.401-0.067,1.815
			c-0.094,0.122-0.469,0.249-0.691,0.292c-1.087,0.073-1.748,0.536-1.927,1.596c-0.582-0.165-1.553,0.049-2.101,0.347
			c-0.295-0.091-0.911-0.98-1.188-1.833c-0.216-0.676-0.752-1.211-1.413-1.461c-0.664-0.262-1.461-0.195-2.052,0.17
			c0,0-0.344,0.195-1.403,0.195c-1.69,0-3.593-0.469-3.605-0.487c-0.798-0.164-1.607,0.019-2.189,0.597
			c-9.033,8.707-8.187,22.506-8.142,23.09c0.067,1.072,0.853,1.949,1.906,2.132c1.117,0.237,2.083-0.354,2.545-1.321
			c2.214-4.829,10.221-5.213,12.614-5.213c0.868,0,1.404,0.043,1.446,0.043c0.685,0.158,1.297-0.146,1.784-0.609
			c5.736-5.285,13.399-5.76,16.249-5.76c0.037,0,0.07,0,0.094,0c0.298,0.085,0.548,0,0.786-0.086
			c4.101-1.193,7.152-3.592,9.045-7.148c3.02-5.681,1.945-12.422,1.629-13.426c-0.07-0.22-0.167-0.421-0.292-0.606
			c-1.802-2.612-6.722-10.014-7.87-12.769c-1.471-3.529-2.643-11.511-1.267-14.292c4.305-8.71,12.148-10.007,16.438-10.007
			c3.604,0,6.467,0.904,7.931,1.726c3.459,1.998,6.162,7.466,6.625,9.323c-0.036,0.18-0.146,0.393-0.243,0.618
			c-0.402,0.965-0.975,2.29-0.305,3.617c0.768,1.583,2.552,2.47,4.293,3.328c0.469,0.25,1.175,0.594,1.644,0.801
			c-0.268,0.262-0.572,0.536-0.864,0.758c-0.847,0.661-1.127,1.827-0.694,2.795c0.22,0.466,0.438,1.041,0.542,1.422
			c-0.043,0.079-0.091,0.143-0.134,0.226c-1.084,1.881-0.999,3.352,0.621,4.7c0,0,0,0,0,0.013c-0.354,0.615-0.877,1.638-0.427,2.941
			c0.348,0.925,0.5,1.553,0.549,1.946h-0.013c-5.809,0-8.227,2.771-8.494,3.077c-0.231,0.293-0.384,0.634-0.463,0.987
			c-0.84,3.793-0.359,6.856,1.431,9.061c2.277,2.844,5.955,3.435,8.641,3.435c1.236,0,2.095-0.129,2.095-0.129
			c0.907-0.14,1.662-0.81,1.906-1.711c2.082-7.958,15.729-10.326,15.868-10.339c0.896-0.152,1.607-0.792,1.863-1.65
			c2.771-9.313,15.563-12.93,15.698-12.967c0.853-0.237,1.51-0.943,1.681-1.83c0.158-0.877-0.184-1.763-0.901-2.299
			c-0.597-0.444-0.634-0.469-1.522-3.029c-0.475-1.397-1.157-3.343-2.253-6.18c-3.501-9.049-11.01-12.13-11.32-12.252
			c-1.09-0.432-2.344,0.019-2.916,1.048c-0.768,1.4-2.004,1.513-2.339,1.513c-1.235-0.21-2.106,0.707-2.374,1.827
			c-0.128,0.594-0.013,1.199,0.292,1.695c-1.979,2.981-5.072,3.642-7.41,3.642c-0.256,0-0.47-0.012-0.652-0.024
			c-2.539-2.43-1.79-7.301-1.395-9.115c13.074-9.408,15.924-5.018,16.131-4.719c1.735,2.219,10.011,7.106,12.763,8.665
			c14.449,6.163,19.777,15.309,19.839,15.403c0.109,0.18,0.23,0.356,0.39,0.5c0.572,0.6,0.828,1.196,0.804,1.982
			c-0.079,2.807-3.593,6.503-4.811,7.575c-0.274,0.244-0.487,0.539-0.634,0.88c-8.062,19.787-26.938,25.206-27.127,25.267
			c-0.651,0.184-1.212,0.646-1.51,1.268c-0.28,0.627-0.28,1.346,0.018,1.96c6.12,13.056-4.743,34.075-4.847,34.276
			c-0.243,0.444-0.316,0.962-0.243,1.449c2.058,12.763,0.194,25.002-1.705,33.009c-0.207,0.871,0.098,1.767,0.767,2.339
			c0.701,0.56,1.608,0.67,2.448,0.353c34.173-14.87,56.252-48.519,56.252-85.76C187.065,42.237,145.092,0.28,93.529,0.28z
			 M133.133,173.334c1.534-7.989,2.539-18.48,0.913-29.441c1.876-3.812,10.078-21.684,5.554-35.311
			c5.797-2.229,20.24-9.299,27.56-26.683c1.461-1.376,5.827-5.845,5.979-10.543c0.061-1.97-0.621-3.766-1.967-5.225
			c-1.078-1.756-7.143-10.823-21.659-16.985c-4.737-2.749-10.352-6.366-11.021-7.194c-0.207-0.313-2.095-3.081-6.881-3.081
			c-4.47,0-10.028,2.433-16.52,7.222c-0.396,0.292-0.688,0.715-0.841,1.19c-0.128,0.429-3.123,10.519,3.355,15.32
			c0.286,0.207,0.64,0.356,0.986,0.417c0,0,0.779,0.137,1.997,0.137c2.546,0,8.805-0.685,11.91-6.74
			c0.201-0.286,0.391-0.648,0.5-1.065c0.742-0.329,1.474-0.81,2.131-1.44c1.948,1.203,5.285,3.885,7.186,8.793
			c1.084,2.768,1.729,4.664,2.204,6.022c0.316,0.88,0.548,1.595,0.815,2.201c-4.433,1.791-12.354,5.956-15.368,13.713
			c-3.849,0.865-14.413,3.921-17.708,11.862c-0.012,0-0.024,0-0.024,0c-1.363,0-3.812-0.231-4.993-1.692
			c-0.767-0.963-0.986-2.448-0.657-4.415c0.621-0.421,2.01-1.127,4.549-1.127l0.932,0.024c1.193,0,2.338-0.597,3.021-1.596
			c0.974-1.406,1.011-3.364,0.146-5.924c0.195-0.326,0.39-0.676,0.536-1.042c0.73-1.753,0.061-2.902-1.023-3.961
			c0.122-0.237,0.244-0.487,0.365-0.773c0.135-0.356,0.391-1.096-0.219-2.938c2.021-1.97,1.863-3.179,1.803-3.66
			c-0.28-2.381-2.643-3.553-4.713-4.582c-0.524-0.262-1.291-0.642-1.767-0.922c0-0.006,0-0.006,0-0.006
			c0.354-0.81,0.768-1.802,0.536-2.886c-0.755-3.711-4.263-10.257-8.891-12.939c-2.594-1.464-6.427-2.356-10.263-2.356
			c-9.146,0-16.678,4.594-20.633,12.607c-2.28,4.619-0.454,14.285,1.154,18.17c1.416,3.404,6.686,11.201,8.062,13.217
			c0.28,1.797,1.392,11.594-7.246,14.352l-0.329-0.012c-2.582,0-11.292,0.469-18.237,6.352c-2.332-0.141-8.238,0.061-12.833,2.733
			c0.603-3.806,2.052-8.72,5.504-12.55c1.261,0.226,3.312,0.475,4.759,0.25c1.102,1.803,3.604,3.787,6.479,2.667
			c1.571,0.158,3.285-0.591,4.089-1.925c0.822-0.285,1.802-0.81,2.545-1.783c0.548-0.713,1.139-1.931,0.959-3.685
			c0.66-2.259,0.91-5.712-1.233-7.685c-0.158-1.025-0.582-2.441-1.653-3.547c-1.017-1.047-2.396-1.607-4.348-1.607
			c-0.006,0-0.03,0-0.042,0c-0.018,0-6.427,0.524-8.829,0.311c-0.305-0.024-0.648-0.049-0.993-0.049
			c-1.952,0-8.61,0.548-12.489,7.396l-11.031,15.437c-0.329,0.432-8.004,10.777-9.228,21.336c-0.372,1.108-1.208,4.232,0.445,7.222
			c1.416,2.563,4.152,4.214,8.235,4.89c0.563,0.079,13.768,1.687,18.675,1.687l-0.012-2.338l0.618,2.338
			c3.727,0,9.733,0,18.35-5.669c1.233,3.136,3.849,7.892,9.116,11.746c1.47,2.819,8.531,16.222,12.489,21.111
			c-0.106,1.894-0.478,6.801-2.058,13.201c-44.137-5.761-77.18-43.264-77.18-88.067c0-48.997,39.856-88.853,88.853-88.853
			c48.994,0,88.853,39.856,88.853,88.853C182.388,127.629,163.196,158.342,133.133,173.334z M95.868,15.29
			c0,1.291-1.048,2.338-2.338,2.338c-41.981,0-76.133,34.163-76.133,76.146c0,1.29-1.047,2.338-2.338,2.338
			c-1.291,0-2.338-1.048-2.338-2.338c0-44.558,36.246-80.822,80.809-80.822C94.82,12.951,95.868,13.999,95.868,15.29z"/>
	</g>
</g>
<g>
</g>
<g>
</g>
<g>
</g>
<g>
</g>
<g>
</g>
<g>
</g>
<g>
</g>
<g>
</g>
<g>
</g>
<g>
</g>
<g>
</g>
<g>
</g>
<g>
</g>
<g>
</g>
<g>
</g>
</svg>
