<?xml version="1.0" encoding="iso-8859-1"?>
<!-- Generator: Adobe Illustrator 19.0.0, SVG Export Plug-In . SVG Version: 6.00 Build 0)  -->
<svg version="1.1" id="Capa_1" xmlns="http://www.w3.org/2000/svg" xmlns:xlink="http://www.w3.org/1999/xlink" x="0px" y="0px"
	 viewBox="0 0 512.001 512.001" style="enable-background:new 0 0 512.001 512.001;" xml:space="preserve">
<g>
	<g>
		<path d="M507.524,382.729l-55.274-55.274c-12.941-12.942-31.957-18.019-49.629-13.245l-28.038,7.572l-70.04-70.044
			c-2.929-2.929-7.678-2.93-10.606-0.001c-2.93,2.929-2.93,7.678-0.001,10.606l73.081,73.086c0.009,0.009,0.016,0.02,0.025,0.029
			l51.19,51.19l27.621,27.624c5.386,5.384,1.478,14.516-6.017,14.516c-6.681,0,2.384,4.61-173.23-169.717l138.177-138.177
			c1.724,4.673,3.722,9.198,6.677,12.796c3.006,3.659,8.081,7.58,16.034,7.58c1.677,0,3.483-0.175,5.425-0.563
			c15.488-3.099,26.725-15.844,33.398-37.879c5.427-17.921,6.431-37.902,6.545-48.218c0.291-26.075-3.067-29.434-4.332-30.7
			c-1.266-1.264-4.636-4.627-30.696-4.333c-10.314,0.114-30.294,1.117-48.214,6.542c-22.041,6.674-34.788,17.911-37.887,33.402
			c-2.229,11.142,2.585,17.819,7.017,21.458c3.598,2.956,8.123,4.954,12.797,6.678L256,203.203L140.453,87.656
			c4.673-1.724,9.198-3.722,12.796-6.678c4.432-3.639,9.246-10.315,7.017-21.458c-3.1-15.491-15.846-26.728-37.887-33.402
			c-17.921-5.425-37.9-6.428-48.214-6.542c-26.037-0.288-29.431,3.069-30.696,4.334c-1.265,1.265-4.623,4.624-4.332,30.699
			c0.114,10.316,1.118,30.297,6.545,48.218c6.673,22.036,17.91,34.781,33.399,37.879c1.941,0.389,3.746,0.563,5.424,0.563
			c7.951,0,13.029-3.921,16.034-7.58c2.953-3.597,4.951-8.119,6.675-12.789l100.354,100.354c1.465,1.464,3.385,2.196,5.304,2.196
			s3.839-0.732,5.304-2.196c2.929-2.93,2.929-7.678,0-10.607L113.003,105.476c1.332-2.803,2.873-5.316,4.795-7.237v-0.001
			c1.919-1.92,4.43-3.46,7.231-4.791L245.393,213.81L137.42,321.783l-28.04-7.573c-1.012-0.273-2.05-0.52-3.084-0.731
			c-4.059-0.836-8.021,1.782-8.853,5.84c-0.833,4.058,1.782,8.021,5.84,8.853c0.734,0.151,1.47,0.325,2.186,0.519l19.718,5.325
			l-22.913,22.912l-28.039-7.572c-4.423-1.195-8.931-1.773-13.407-1.765l9.529-9.529c2.565-2.566,5.49-4.725,8.694-6.419
			c3.662-1.935,5.062-6.473,3.127-10.135c-1.935-3.661-6.47-5.063-10.135-3.127c-4.531,2.395-8.668,5.447-12.294,9.074
			L4.476,382.729c-4.153,4.154-5.545,10.184-3.632,15.739c1.913,5.554,6.724,9.448,12.554,10.162
			c24.094,2.485,27.641,4.173,36.705,3.613c-3.016,8.317-1.221,18,5.436,24.658c4.441,4.44,10.346,6.887,16.624,6.887
			c2.782,0,5.491-0.485,8.035-1.412c-0.19,3.126-0.11,6.293,0.279,9.474l3.334,27.193c0.714,5.83,4.608,10.64,10.162,12.554
			c1.647,0.568,3.337,0.845,5.007,0.845c3.959,0,7.809-1.556,10.731-4.477l55.275-55.275c12.942-12.943,18.017-31.96,13.245-49.63
			l-7.574-28.04L256,269.678l85.343,85.342l-7.574,28.041c-4.772,17.67,0.303,36.686,13.246,49.63
			c38.208,38.185,36.168,37.34,40.448,37.34c6.621,0,10.042-8.065,5.303-12.804c-9.156-9.155-12.747-22.609-9.371-35.112
			l5.325-19.717l17.559,17.559c7.949,7.948,11.723,18.907,10.356,30.066l-3.334,27.195c-0.01,0.076-0.024,0.113-0.027,0.118
			c-0.039,0.057-0.219,0.12-0.282,0.098c-0.007-0.002-0.04-0.022-0.095-0.077c-2.93-2.928-7.678-2.928-10.607,0
			c-2.929,2.93-2.929,7.678,0,10.607c2.922,2.921,6.771,4.477,10.731,4.477c1.67,0,3.359-0.277,5.007-0.845
			c5.554-1.913,9.448-6.724,10.162-12.553l3.334-27.195c0.39-3.181,0.469-6.348,0.279-9.473c2.544,0.926,5.253,1.412,8.035,1.412
			c6.278,0,12.182-2.446,16.624-6.887c6.657-6.658,8.453-16.342,5.436-24.658c1.05,0.065,2.103,0.109,3.161,0.109
			c2.105,0,4.226-0.128,6.35-0.389l27.194-3.333c5.83-0.714,10.64-4.608,12.554-10.162
			C513.069,392.913,511.677,386.883,507.524,382.729z M123.771,77.684c-18.12,7.018-22.801,15.423-29.022,33.467
			c-4.825,13.992-6.611,16.068-12.726,14.847c-6.248-1.25-11.404-5.434-15.762-12.79C52.916,90.686,53.312,48.094,54.942,35.383
			c12.711-1.63,55.301-2.027,77.824,11.316c7.357,4.359,11.541,9.515,12.791,15.764C147.505,72.196,136.678,72.091,123.771,77.684z
			 M366.443,62.464c1.25-6.249,5.434-11.405,12.791-15.764c22.526-13.345,65.117-12.946,77.824-11.316
			c1.63,12.711,2.026,55.303-11.318,77.825c-4.358,7.356-9.515,11.54-15.762,12.79c-6.122,1.221-7.903-0.857-12.727-14.847
			c-2.891-8.386-5.932-17.01-12.441-23.519v0.001c-4.732-4.733-10.678-7.661-16.581-9.947
			C375.266,72.068,364.511,72.115,366.443,62.464z M42.416,397.075l-27.194-3.333c-0.076-0.01-0.112-0.023-0.118-0.027
			c-0.056-0.037-0.119-0.221-0.098-0.284c0.002-0.006,0.021-0.039,0.077-0.094l20.125-20.125c0.001-0.001,0.002-0.002,0.004-0.003
			c9.156-9.157,22.61-12.749,35.113-9.372l19.716,5.325L72.483,386.72C64.534,394.667,53.578,398.441,42.416,397.075z
			 M119.243,457.219l-20.139,20.139c-0.055,0.055-0.088,0.075-0.095,0.077c-0.064,0.023-0.243-0.041-0.282-0.098
			c-0.003-0.005-0.018-0.042-0.027-0.119l-3.334-27.193c-1.367-11.16,2.407-22.119,10.357-30.067L123.28,402.4l5.325,19.717
			C131.98,434.615,128.392,448.064,119.243,457.219z M154.378,422.084l-9.529,9.529c0.008-4.476-0.569-8.984-1.764-13.407
			l-7.573-28.04l22.911-22.912l5.326,19.717C167.126,399.473,163.535,412.927,154.378,422.084z M78.177,426.286
			c-3.37,3.36-8.728,3.312-12.031,0.008c-3.315-3.314-3.315-8.708,0-12.022L386.971,93.447c2.801,1.331,5.312,2.871,7.231,4.791
			v0.001c1.92,1.919,3.46,4.43,4.792,7.231L78.177,426.286z M368.914,418.206c-1.195,4.424-1.772,8.932-1.764,13.408l-9.529-9.529
			c-9.157-9.158-12.748-22.612-9.372-35.113l5.326-19.717l22.911,22.912L368.914,418.206z M409.727,356.928l-22.911-22.912
			l19.715-5.325c12.505-3.374,25.956,0.216,35.112,9.372l9.528,9.528c-4.476-0.008-8.983,0.57-13.406,1.765L409.727,356.928z
			 M496.896,393.714c-0.006,0.004-0.042,0.018-0.118,0.027l-27.195,3.333c-11.157,1.368-22.117-2.405-30.066-10.356l-17.558-17.558
			l19.716-5.325c12.501-3.376,25.956,0.215,35.113,9.372l20.129,20.129c0.056,0.055,0.075,0.088,0.077,0.094
			C497.015,393.494,496.952,393.677,496.896,393.714z"/>
	</g>
</g>
<g>
</g>
<g>
</g>
<g>
</g>
<g>
</g>
<g>
</g>
<g>
</g>
<g>
</g>
<g>
</g>
<g>
</g>
<g>
</g>
<g>
</g>
<g>
</g>
<g>
</g>
<g>
</g>
<g>
</g>
</svg>
